<svg width="147" height="77" viewBox="0 0 147 77" fill="none" xmlns="http://www.w3.org/2000/svg">
<g clip-path="url(#clip0_1_3751)">
<path d="M72.472 51.515C72.2851 51.4686 69.3297 50.7034 66.1874 50.7034C60.2532 50.7034 56.667 53.8919 56.667 58.6341C56.667 62.8314 59.6574 64.9416 63.2553 66.0663C63.6525 66.1938 64.2366 66.3793 64.6337 66.5069C66.2341 67.0054 67.5074 67.7475 67.5074 69.0345C67.5074 70.4722 66.0355 71.3998 62.8348 71.3998C60.0196 71.3998 57.3211 70.5998 56.7487 70.449V76.2927C57.0641 76.3623 60.2765 76.9884 63.7109 76.9884C68.6405 76.9884 74.2827 74.8434 74.2827 68.4664C74.2827 65.3706 72.3786 62.5299 68.1966 61.2081L66.421 60.64C65.358 60.3037 63.4656 59.7704 63.4656 58.2283C63.4656 56.9993 64.8674 56.1413 67.4607 56.1413C69.6918 56.1413 72.4019 56.8833 72.4954 56.9181V51.4918L72.472 51.515ZM126.943 63.8517C126.943 67.5504 124.093 70.5418 120.273 70.5418C116.453 70.5418 113.614 67.5504 113.614 63.8517C113.614 60.153 116.453 57.1848 120.273 57.1848C124.093 57.1848 126.943 60.1646 126.943 63.8517ZM120.273 50.715C112.411 50.715 106.781 56.605 106.781 63.8517C106.781 71.0983 112.411 77 120.273 77C128.134 77 133.777 71.1099 133.777 63.8517C133.777 56.5934 128.134 50.715 120.273 50.715ZM48.0227 76.5594H41.5745V51.1672H48.0227" fill="#049FD9"/>
<path d="M32.7199 51.6309C32.1124 51.4454 29.8696 50.715 26.8441 50.715C18.9941 50.715 13.2468 56.2688 13.2468 63.8517C13.2468 72.0375 19.6016 77 26.8441 77C29.7177 77 31.9139 76.3275 32.7199 76.0956V69.278C32.4512 69.4287 30.3369 70.623 27.3114 70.623C23.0126 70.623 20.244 67.6199 20.244 63.8401C20.244 60.0602 23.1294 57.0688 27.3114 57.0688C30.3953 57.0688 32.4629 58.2979 32.7199 58.4254" fill="#049FD9"/>
<path d="M99.9936 51.6309C99.3861 51.4454 97.1433 50.715 94.1178 50.715C86.2678 50.715 80.5205 56.2688 80.5205 63.8517C80.5205 72.0375 86.8752 77 94.1178 77C96.9914 77 99.1875 76.3275 99.9936 76.0956V69.278C99.7249 69.4287 97.6105 70.623 94.585 70.623C90.2862 70.623 87.5177 67.6199 87.5177 63.8401C87.5177 60.0602 90.4031 57.0688 94.585 57.0688C97.669 57.0688 99.7366 58.2979 99.9936 58.4254" fill="#049FD9"/>
<path d="M41.5628 3.17693C41.5628 1.42614 40.126 0 38.362 0C36.5981 0 35.1613 1.42614 35.1613 3.17693V36.8825C35.1613 38.6449 36.5981 40.0595 38.362 40.0595C40.126 40.0595 41.5628 38.6333 41.5628 36.8825V3.17693ZM23.9821 15.1426C23.9821 13.3918 22.5453 11.9657 20.7814 11.9657C19.0175 11.9657 17.5807 13.3802 17.5807 15.1426V30.5519C17.5807 32.3027 19.0175 33.7288 20.7814 33.7288C22.5453 33.7288 23.9821 32.3027 23.9821 30.5519V15.1426ZM6.40146 23.885C6.40146 22.1342 4.96464 20.7196 3.20073 20.7196C1.43682 20.7196 0 22.1342 0 23.885V30.5519C0 32.3027 1.43682 33.7288 3.20073 33.7288C4.96464 33.7288 6.40146 32.3027 6.40146 30.5519" fill="#049FD9"/>
<path d="M35.1614 3.17693C35.1614 1.42614 36.5982 0 38.3621 0C40.126 0 41.5628 1.42614 41.5628 3.17693V36.8825C41.5628 38.6449 40.126 40.0595 38.3621 40.0595C36.5982 40.0595 35.1614 38.6333 35.1614 36.8825V3.17693ZM52.742 15.1426C52.742 13.3918 54.1789 11.9657 55.9428 11.9657C57.7067 11.9657 59.1435 13.3802 59.1435 15.1426V30.5519C59.1435 32.3027 57.7067 33.7288 55.9428 33.7288C54.1789 33.7288 52.742 32.3027 52.742 30.5519V15.1426ZM70.3227 23.885C70.3227 22.1342 71.7595 20.7196 73.5234 20.7196C75.2873 20.7196 76.7242 22.1342 76.7242 23.885V30.5519C76.7242 32.3027 75.2873 33.7288 73.5234 33.7288C71.7595 33.7288 70.3227 32.3027 70.3227 30.5519" fill="#049FD9"/>
<path d="M105.449 3.17693C105.449 1.42614 106.886 0 108.65 0C110.414 0 111.85 1.42614 111.85 3.17693V36.8825C111.85 38.6449 110.414 40.0595 108.65 40.0595C106.886 40.0595 105.449 38.6333 105.449 36.8825V3.17693ZM123.03 15.1426C123.03 13.3918 124.466 11.9657 126.23 11.9657C127.994 11.9657 129.431 13.3802 129.431 15.1426V30.5519C129.431 32.3027 127.994 33.7288 126.23 33.7288C124.466 33.7288 123.03 32.3027 123.03 30.5519V15.1426ZM140.599 23.885C140.599 22.1342 142.035 20.7196 143.799 20.7196C145.563 20.7196 147 22.1342 147 23.885V30.5519C147 32.3027 145.563 33.7288 143.799 33.7288C142.035 33.7288 140.599 32.3027 140.599 30.5519" fill="#049FD9"/>
<path d="M111.839 3.17693C111.839 1.42614 110.402 0 108.638 0C106.874 0 105.437 1.42614 105.437 3.17693V36.8825C105.437 38.6449 106.874 40.0595 108.638 40.0595C110.402 40.0595 111.839 38.6333 111.839 36.8825V3.17693ZM94.2697 15.1426C94.2697 13.3918 92.8329 11.9657 91.069 11.9657C89.3051 11.9657 87.8683 13.3802 87.8683 15.1426V30.5519C87.8683 32.3027 89.3051 33.7288 91.069 33.7288C92.8329 33.7288 94.2697 32.3027 94.2697 30.5519V15.1426ZM76.6891 23.885C76.6891 22.1342 75.2522 20.7196 73.4883 20.7196C71.7244 20.7196 70.2876 22.1342 70.2876 23.885V30.5519C70.2876 32.3027 71.7244 33.7288 73.4883 33.7288C75.2522 33.7288 76.6891 32.3027 76.6891 30.5519" fill="#049FD9"/>
</g>
<defs>
<clipPath id="clip0_1_3751">
<rect width="147" height="77" fill="white"/>
</clipPath>
</defs>
</svg>
